<?xml version="1.0" encoding="UTF-8" standalone="no"?>
<!DOCTYPE svg PUBLIC "-//W3C//DTD SVG 1.1//EN" "http://www.w3.org/Graphics/SVG/1.1/DTD/svg11.dtd">
<svg width="100%" height="100%" viewBox="0 0 24 24" version="1.1" xmlns="http://www.w3.org/2000/svg" xmlns:xlink="http://www.w3.org/1999/xlink" xml:space="preserve" xmlns:serif="http://www.serif.com/" style="fill-rule:evenodd;clip-rule:evenodd;stroke-linecap:round;stroke-linejoin:round;stroke-miterlimit:1.5;">
    <g transform="matrix(1.10929,0,0,1.10929,0.000698126,0.0376746)">
        <g id="Layer1">
            <circle cx="10.817" cy="10.784" r="10.773" style="fill:white;stroke:rgb(170,170,170);stroke-width:0.08px;"/>
        </g>
    </g>
    <g>
        <g transform="matrix(0.872562,0,0,0.872562,1.52381,2.14422)">
            <path d="M24,1.5C24,0.677 23.323,0 22.5,0L1.5,0C0.677,0 -0,0.677 0,1.5L0,17.5C0,18.323 0.677,19 1.5,19L22.5,19C23.323,19 24,18.323 24,17.5L24,1.5ZM22,14.5C22,14.774 21.774,15 21.5,15L2.5,15C2.226,15 2,14.774 2,14.5L2,2.5C2,2.226 2.226,2 2.5,2L21.5,2C21.774,2 22,2.226 22,2.5L22,14.5Z" style="fill-rule:nonzero;"/>
        </g>
        <g transform="matrix(0.872562,0,0,0.872562,1.52381,2.14422)">
            <path d="M14.35,20.681C14.255,20.566 14.114,20.5 13.965,20.5L10.035,20.5C9.886,20.5 9.745,20.566 9.65,20.681L7.55,23.213C7.491,23.297 7.459,23.397 7.459,23.5C7.459,23.774 7.685,24 7.959,24C7.96,24 7.96,24 7.96,24L16.039,24C16.039,24 16.039,24 16.04,24C16.314,24 16.54,23.774 16.54,23.5C16.54,23.397 16.508,23.297 16.449,23.213L14.35,20.681Z" style="fill-rule:nonzero;"/>
        </g>
        <g transform="matrix(0.872562,0,0,0.872562,1.52381,2.14422)">
            <path d="M13.5,3.75C13.089,3.75 12.75,4.089 12.75,4.5L12.75,12.5C12.75,12.911 13.089,13.25 13.5,13.25C16.106,13.25 18.25,11.106 18.25,8.5C18.25,5.894 16.106,3.75 13.5,3.75ZM14.584,11.564C14.507,11.591 14.422,11.579 14.356,11.532C14.29,11.486 14.251,11.412 14.25,11.332L14.25,5.672C14.245,5.591 14.286,5.513 14.356,5.472C14.422,5.425 14.507,5.413 14.584,5.44C15.879,5.898 16.75,7.13 16.75,8.504C16.75,9.878 15.879,11.11 14.584,11.568L14.584,11.564Z" style="fill-rule:nonzero;"/>
        </g>
        <g transform="matrix(0.872562,0,0,0.872562,1.52381,2.14422)">
            <path d="M10.5,3.75C10.089,3.75 9.75,4.089 9.75,4.5L9.75,7.5C9.75,7.637 9.637,7.75 9.5,7.75L7.5,7.75C7.363,7.75 7.25,7.637 7.25,7.5L7.25,4.5C7.25,4.089 6.911,3.75 6.5,3.75C6.089,3.75 5.75,4.089 5.75,4.5L5.75,12.5C5.75,12.911 6.089,13.25 6.5,13.25C6.911,13.25 7.25,12.911 7.25,12.5L7.25,9.5C7.25,9.363 7.363,9.25 7.5,9.25L9.5,9.25C9.637,9.25 9.75,9.363 9.75,9.5L9.75,12.5C9.75,12.911 10.089,13.25 10.5,13.25C10.911,13.25 11.25,12.911 11.25,12.5L11.25,4.5C11.25,4.089 10.911,3.75 10.5,3.75Z" style="fill-rule:nonzero;"/>
        </g>
    </g>
</svg>
